<svg xmlns="http://www.w3.org/2000/svg" version="1.0" preserveAspectRatio="xMidYMid meet" viewBox="522 220 364.2 328">

<g transform="translate(0.000000,768.000000) scale(0.100000,-0.100000)" fill="#ffffff" stroke="none">
<path d="M5220 4303 c0 -993 2 -1174 14 -1158 7 11 97 165 200 342 l186 322 0 641 0 640 937 -2 937 -3 95 -122 c53 -67 251 -317 440 -555 189 -238 344 -437 344 -443 0 -6 -34 -69 -75 -140 -42 -72 -217 -373 -388 -670 -172 -297 -318 -546 -324 -553 -9 -9 -209 -12 -958 -10 l-947 3 410 705 c225 388 409 708 409 713 0 4 -101 7 -224 7 -167 0 -226 -3 -234 -12 -5 -7 -45 -74 -87 -148 -146 -252 -321 -554 -528 -911 l-207 -357 0 -196 0 -196 1301 2 1300 3 116 200 c164 284 335 580 650 1124 l275 473 -29 38 c-15 21 -151 193 -301 382 -150 188 -400 504 -555 700 l-282 357 -1237 1 -1238 0 0 -1177z"/>
<path d="M5970 4555 l0 -195 573 0 572 -1 182 -229 183 -230 -134 -232 c-74 -128 -150 -259 -170 -290 l-35 -58 -323 0 -323 0 -107 -185 c-60 -102 -108 -190 -108 -195 0 -7 188 -9 552 -8 l552 3 81 140 c360 622 495 861 491 870 -2 5 -53 71 -113 145 -59 75 -202 254 -317 398 l-208 262 -674 0 -674 0 0 -195z"/>
</g>
</svg>
